<?xml version="1.0" standalone="no"?>
<!DOCTYPE svg PUBLIC "-//W3C//DTD SVG 20010904//EN"
 "http://www.w3.org/TR/2001/REC-SVG-20010904/DTD/svg10.dtd">
<svg version="1.0" xmlns="http://www.w3.org/2000/svg"
 width="500.000000pt" height="500.000000pt" viewBox="0 0 500.000000 500.000000"
 preserveAspectRatio="xMidYMid meet">
<metadata>
Created by potrace 1.11, written by Peter Selinger 2001-2013
</metadata>
<g transform="translate(0.000000,500.000000) scale(0.100000,-0.100000)"
fill="#000000" stroke="none">
<path d="M2258 2821 c-77 -31 -117 -60 -173 -129 -68 -81 -118 -176 -147 -277
-31 -108 -33 -321 -4 -405 43 -126 103 -203 189 -241 42 -20 68 -24 142 -24
78 1 98 5 150 30 92 44 214 179 250 276 8 20 -99 139 -124 139 -11 0 -36 -29
-65 -74 -62 -98 -105 -136 -155 -136 -55 0 -80 25 -97 95 -19 82 -17 163 5
272 34 166 105 279 169 271 23 -3 27 -8 30 -42 2 -22 -4 -71 -14 -109 -16 -67
-16 -71 1 -84 13 -9 53 -13 132 -13 111 0 113 0 130 27 15 22 18 49 18 138 0
94 -3 116 -22 151 -29 55 -79 102 -133 127 -65 30 -217 34 -282 8z m219 -7
c-3 -3 -12 -4 -19 -1 -8 3 -5 6 6 6 11 1 17 -2 13 -5z m-12 -24 c3 -6 -1 -7
-9 -4 -18 7 -21 14 -7 14 6 0 13 -4 16 -10z m105 -210 c0 -5 -7 -10 -16 -10
-8 0 -12 5 -9 10 3 6 10 10 16 10 5 0 9 -4 9 -10z m-50 -10 c0 -5 -8 -10 -17
-10 -15 0 -16 2 -3 10 19 12 20 12 20 0z m45 -20 c3 -5 1 -10 -4 -10 -6 0 -11
5 -11 10 0 6 2 10 4 10 3 0 8 -4 11 -10z m-445 -36 c0 -8 -4 -14 -8 -14 -4 0
-8 9 -8 19 0 11 4 17 8 15 4 -3 8 -12 8 -20z m-23 -70 c-3 -3 -12 -4 -19 -1
-8 3 -5 6 6 6 11 1 17 -2 13 -5z"/>
</g>
</svg>
